<?xml version="1.0" encoding="utf-8"?>
<!-- Generator: Adobe Illustrator 16.0.4, SVG Export Plug-In . SVG Version: 6.00 Build 0)  -->
<!DOCTYPE svg PUBLIC "-//W3C//DTD SVG 1.1//EN" "http://www.w3.org/Graphics/SVG/1.1/DTD/svg11.dtd">
<svg version="1.1" id="Layer_1" xmlns="http://www.w3.org/2000/svg" xmlns:xlink="http://www.w3.org/1999/xlink" x="0px" y="0px"
	 width="30px" height="60px" viewBox="5 -10 30 60" enable-background="new 5 -10 30 60" xml:space="preserve">
<rect x="5" y="-10" display="none" opacity="0.4" fill="#28B8E5" width="30" height="30"/>
<rect x="5" y="20" display="none" opacity="0.4" fill="#29E22D" width="30" height="30"/>
<g>
	<g>
		<g>
			<g>
				<defs>
					<rect id="SVGID_1_" x="8.5" y="23.5" width="23" height="23"/>
				</defs>
				<clipPath id="SVGID_2_">
					<use xlink:href="#SVGID_1_"  overflow="visible"/>
				</clipPath>
				<path clip-path="url(#SVGID_2_)" fill="#FFA900" d="M20,24.826c5.609,0,10.174,4.564,10.174,10.174
					C30.173,40.611,25.609,45.174,20,45.174c-5.609,0-10.173-4.564-10.173-10.174S14.391,24.826,20,24.826 M20,46.5
					c6.341,0,11.5-5.158,11.5-11.5S26.342,23.5,20,23.5c-6.341,0-11.5,5.158-11.5,11.5S13.659,46.5,20,46.5"/>
			</g>
		</g>
	</g>
	<g>
		<g>
			<g>
				<defs>
					<rect id="SVGID_3_" x="8.5" y="23.5" width="23" height="23"/>
				</defs>
				<clipPath id="SVGID_4_">
					<use xlink:href="#SVGID_3_"  overflow="visible"/>
				</clipPath>
				<path clip-path="url(#SVGID_4_)" fill="#FFA900" d="M21.199,40.865c0.26,0.258,0.68,0.258,0.938,0c0.26-0.26,0.26-0.68,0-0.939
					L17.212,35l4.925-4.926c0.26-0.26,0.26-0.68,0-0.939c-0.129-0.129-0.3-0.193-0.469-0.193c-0.17,0-0.34,0.064-0.47,0.193
					l-5.394,5.396c-0.259,0.258-0.259,0.68,0,0.938L21.199,40.865z"/>
			</g>
		</g>
	</g>
</g>
<g>
	<g>
		<g>
			<g>
				<defs>
					<rect id="SVGID_5_" x="8.5" y="-6.5" width="23" height="23.001"/>
				</defs>
				<clipPath id="SVGID_6_">
					<use xlink:href="#SVGID_5_"  overflow="visible"/>
				</clipPath>
				<path clip-path="url(#SVGID_6_)" fill="#FFFFFF" d="M20-5.174c5.609,0,10.174,4.565,10.174,10.175
					C30.173,10.611,25.609,15.174,20,15.174C14.391,15.174,9.827,10.61,9.827,5S14.391-5.174,20-5.174 M20,16.5
					c6.341,0,11.5-5.159,11.5-11.5c0-6.341-5.158-11.5-11.5-11.5C13.659-6.5,8.5-1.341,8.5,5C8.5,11.341,13.659,16.5,20,16.5"/>
			</g>
		</g>
	</g>
	<g>
		<g>
			<g>
				<defs>
					<rect id="SVGID_7_" x="8.5" y="-6.5" width="23" height="23.001"/>
				</defs>
				<clipPath id="SVGID_8_">
					<use xlink:href="#SVGID_7_"  overflow="visible"/>
				</clipPath>
				<path clip-path="url(#SVGID_8_)" fill="#FFFFFF" d="M21.199,10.865c0.26,0.259,0.68,0.259,0.938,0c0.26-0.259,0.26-0.68,0-0.938
					L17.212,5l4.925-4.926c0.26-0.26,0.26-0.681,0-0.939c-0.129-0.129-0.3-0.195-0.469-0.195c-0.17,0-0.34,0.066-0.47,0.195
					L15.805,4.53c-0.259,0.259-0.259,0.68,0,0.938L21.199,10.865z"/>
			</g>
		</g>
	</g>
</g>
</svg>
