<?xml version="1.0" encoding="utf-8"?>
<!-- Generator: Adobe Illustrator 16.0.4, SVG Export Plug-In . SVG Version: 6.00 Build 0)  -->
<!DOCTYPE svg PUBLIC "-//W3C//DTD SVG 1.1//EN" "http://www.w3.org/Graphics/SVG/1.1/DTD/svg11.dtd">
<svg version="1.1" id="Layer_1" xmlns="http://www.w3.org/2000/svg" xmlns:xlink="http://www.w3.org/1999/xlink" x="0px" y="0px"
	 width="40px" height="40px" viewBox="0 0 40 40" enable-background="new 0 0 40 40" xml:space="preserve">
<g>
	<g>
		<g>
			<g>
				<defs>
					<rect id="SVGID_1_" x="5" y="5" width="30" height="30.001"/>
				</defs>
				<clipPath id="SVGID_2_">
					<use xlink:href="#SVGID_1_"  overflow="visible"/>
				</clipPath>
				<path clip-path="url(#SVGID_2_)" fill="#FFA900" d="M20,6.729c7.316,0,13.27,5.955,13.27,13.271
					c-0.001,7.317-5.953,13.271-13.27,13.27c-7.316,0-13.27-5.953-13.27-13.27S12.684,6.729,20,6.729 M20,35.001
					c8.271,0,15-6.729,15-15c0-8.271-6.729-15-15-15s-15,6.729-15,15C5,28.271,11.729,35.001,20,35.001"/>
			</g>
		</g>
	</g>
	<g>
		<g>
			<g>
				<defs>
					<rect id="SVGID_3_" x="5" y="5" width="30" height="30.001"/>
				</defs>
				<clipPath id="SVGID_4_">
					<use xlink:href="#SVGID_3_"  overflow="visible"/>
				</clipPath>
				<path clip-path="url(#SVGID_4_)" fill="#FFA900" d="M21.564,27.649c0.338,0.338,0.887,0.338,1.224,0.001
					c0.339-0.338,0.339-0.887,0-1.225l-6.425-6.425l6.424-6.425c0.338-0.339,0.338-0.888,0-1.226
					c-0.168-0.168-0.392-0.254-0.612-0.254s-0.442,0.086-0.612,0.254l-7.035,7.037c-0.338,0.338-0.338,0.887,0,1.224L21.564,27.649z
					"/>
			</g>
		</g>
	</g>
</g>
</svg>
