<?xml version="1.0" encoding="utf-8"?>
<!-- Generator: Adobe Illustrator 16.0.4, SVG Export Plug-In . SVG Version: 6.00 Build 0)  -->
<!DOCTYPE svg PUBLIC "-//W3C//DTD SVG 1.1//EN" "http://www.w3.org/Graphics/SVG/1.1/DTD/svg11.dtd">
<svg version="1.1" id="Layer_1" xmlns="http://www.w3.org/2000/svg" xmlns:xlink="http://www.w3.org/1999/xlink" x="0px" y="0px"
	 width="842.958px" height="625.468px" viewBox="0 0 842.958 625.468" enable-background="new 0 0 842.958 625.468"
	 xml:space="preserve">
<g>
	
		<line fill="none" stroke="#8C6239" stroke-width="0.6973" stroke-miterlimit="10" x1="680.118" y1="157.325" x2="680.204" y2="159.517"/>
	
		<line fill="none" stroke="#8C6239" stroke-width="0.6973" stroke-miterlimit="10" x1="680.797" y1="157.503" x2="680.563" y2="159.685"/>
	
		<line fill="none" stroke="#8C6239" stroke-width="0.6973" stroke-miterlimit="10" x1="683.145" y1="157.454" x2="682.762" y2="159.612"/>
	
		<line fill="none" stroke="#8C6239" stroke-width="0.6973" stroke-miterlimit="10" x1="683.772" y1="157.771" x2="683.077" y2="159.852"/>
	<polygon fill="#FFFFFF" points="685.452,129.167 688.02,130.114 689.866,130.985 691.768,132.604 693.737,135.433 694.901,138.665 
		694.901,143.224 692.295,148.183 689.551,150.835 686.536,153.489 684.856,155.854 684.333,156.892 684.377,157.983 
		681.823,157.672 679.524,157.393 679.655,155.739 679.194,153.777 678.329,152.335 677.292,150.663 676.024,148.586 
		674.579,146.452 673.485,143.567 672.963,140.454 673.137,137.974 674.696,134.626 676.829,132.264 679.022,130.646 
		680.868,129.552 683.29,129.264 	"/>
	<path fill="#FD5C25" d="M684.375,157.983c0.631-5.13,10.199-8.514,11.109-15.914c0.773-6.318-3.717-12.097-10.033-12.873
		c-6.318-0.775-12.072,3.704-12.854,10.023c-0.904,7.4,7.555,13.041,6.918,18.173 M694.194,141.963
		c-0.891,7.229-9.521,10.584-10.137,15.631c-0.053,0.436-0.201,0.325-0.426,0.3c0.312-5.248,7.939-8.968,8.832-16.233
		c0.625-5.089-1.381-9.697-4.688-11.509C692.081,131.889,694.84,136.704,694.194,141.963z M686.176,129.747
		c2.771,1.079,4.404,6.03,3.707,11.695c-0.889,7.226-6.299,11.327-6.822,16.38c-0.232-0.065-0.307-0.059-0.541-0.062
		c0.793-6.442,3.361-9.609,4.268-16.932C687.411,135.708,687.125,131.28,686.176,129.747z M681.383,157.627
		c-0.229-0.053-0.354-0.008-0.545-0.086c0.621-5.072-3.543-10.312-2.652-17.538c0.695-5.665,3.479-10.07,6.436-10.447
		c-1.293,1.258-2.646,5.483-3.273,10.606C680.444,147.484,682.165,151.277,681.383,157.627z M673.877,139.466
		c0.646-5.26,4.49-9.265,9.084-9.905c-3.645,0.955-6.707,4.939-7.334,10.028c-0.893,7.269,5.576,12.747,4.639,17.89
		c-0.285-0.018-0.361-0.201-0.344-0.394C680.543,152.041,672.989,146.694,673.877,139.466z"/>
	<path fill="#754C24" d="M679.338,158.479c0,0,2.336,0.864,4.816,0.52c0,0-0.029,1.918-0.418,3.434
		c-0.223,0.84-1.412,1.073-2.516,0.95c-1.154-0.129-1.984-0.388-2.119-1.297C678.891,160.569,679.338,158.479,679.338,158.479z"/>
</g>
</svg>
