<?xml version="1.0" encoding="utf-8"?>
<!-- Generator: Adobe Illustrator 16.0.4, SVG Export Plug-In . SVG Version: 6.00 Build 0)  -->
<!DOCTYPE svg PUBLIC "-//W3C//DTD SVG 1.1//EN" "http://www.w3.org/Graphics/SVG/1.1/DTD/svg11.dtd">
<svg version="1.1" id="Layer_1" xmlns="http://www.w3.org/2000/svg" xmlns:xlink="http://www.w3.org/1999/xlink" x="0px" y="0px"
	 width="665.244px" height="691px" viewBox="0 0 665.244 691" enable-background="new 0 0 665.244 691" xml:space="preserve">
<g id="Layer_2" display="none">
	<rect x="342.385" y="343.011" display="inline" fill="#2676BF" width="825.889" height="257.989"/>
</g>
<g>
	
		<line fill="none" stroke="#8C6239" stroke-width="0.6973" stroke-miterlimit="10" x1="561.355" y1="195.896" x2="561.441" y2="198.087"/>
	
		<line fill="none" stroke="#8C6239" stroke-width="0.6973" stroke-miterlimit="10" x1="562.036" y1="196.075" x2="561.799" y2="198.255"/>
	
		<line fill="none" stroke="#8C6239" stroke-width="0.6973" stroke-miterlimit="10" x1="564.383" y1="196.024" x2="564.001" y2="198.184"/>
	
		<line fill="none" stroke="#8C6239" stroke-width="0.6973" stroke-miterlimit="10" x1="565.01" y1="196.342" x2="564.314" y2="198.422"/>
	<polygon fill="#FFFFFF" points="566.689,167.739 569.258,168.685 571.104,169.557 573.007,171.174 574.975,174.003 
		576.139,177.235 576.139,181.794 573.534,186.753 570.79,189.407 567.773,192.06 566.094,194.424 565.571,195.462 565.616,196.555 
		563.061,196.244 560.762,195.963 560.893,194.31 560.432,192.349 559.566,190.907 558.53,189.233 557.262,187.158 555.816,185.022 
		554.723,182.139 554.202,179.024 554.376,176.544 555.934,173.198 558.066,170.834 560.258,169.217 562.105,168.123 
		564.528,167.834 	"/>
	<path fill="#FD5C25" d="M565.614,196.555c0.631-5.13,10.197-8.514,11.107-15.914c0.773-6.318-3.717-12.097-10.033-12.873
		c-6.316-0.775-12.07,3.704-12.852,10.023c-0.906,7.4,7.553,13.041,6.918,18.173 M575.432,180.535
		c-0.889,7.229-9.521,10.584-10.135,15.631c-0.053,0.436-0.203,0.325-0.426,0.3c0.312-5.248,7.938-8.968,8.832-16.233
		c0.625-5.089-1.383-9.697-4.688-11.509C573.319,170.459,576.079,175.274,575.432,180.535z M567.415,168.317
		c2.771,1.079,4.402,6.03,3.707,11.695c-0.891,7.226-6.299,11.327-6.822,16.38c-0.234-0.065-0.307-0.059-0.541-0.062
		c0.793-6.442,3.361-9.609,4.266-16.932C568.648,174.279,568.364,169.851,567.415,168.317z M562.622,196.199
		c-0.229-0.053-0.354-0.008-0.545-0.086c0.621-5.072-3.543-10.312-2.652-17.538c0.695-5.665,3.479-10.07,6.434-10.447
		c-1.293,1.258-2.646,5.483-3.271,10.606C561.682,186.056,563.403,189.849,562.622,196.199z M555.116,178.037
		c0.646-5.26,4.488-9.265,9.084-9.905c-3.646,0.955-6.707,4.939-7.334,10.028c-0.895,7.269,5.574,12.747,4.639,17.89
		c-0.285-0.018-0.361-0.201-0.344-0.394C561.782,190.611,554.227,185.266,555.116,178.037z"/>
	<path fill="#754C24" d="M560.577,197.049c0,0,2.336,0.864,4.814,0.52c0,0-0.027,1.918-0.418,3.434
		c-0.221,0.84-1.412,1.073-2.514,0.95c-1.156-0.129-1.986-0.388-2.119-1.297C560.13,199.141,560.577,197.049,560.577,197.049z"/>
</g>
<g id="Layer_2_copy">
</g>
</svg>
