<?xml version="1.0" encoding="utf-8"?>
<!-- Generator: Adobe Illustrator 16.0.0, SVG Export Plug-In . SVG Version: 6.00 Build 0)  -->
<!DOCTYPE svg PUBLIC "-//W3C//DTD SVG 1.1//EN" "http://www.w3.org/Graphics/SVG/1.1/DTD/svg11.dtd">
<svg version="1.1" id="Layer_1" xmlns="http://www.w3.org/2000/svg" xmlns:xlink="http://www.w3.org/1999/xlink" x="0px" y="0px"
	 width="100px" height="100px" viewBox="0 0 100 100" enable-background="new 0 0 100 100" xml:space="preserve">
<g>
	<path fill="#FFFFFF" d="M72.148,33.451L42.278,63.322L29.043,50.086c-0.93-0.929-2.438-0.929-3.366,0
		c-0.93,0.932-0.93,2.438,0,3.367l14.917,14.92c0.447,0.445,1.053,0.695,1.684,0.695s1.236-0.25,1.684-0.695l31.552-31.555
		c0.932-0.931,0.932-2.437,0-3.367C74.586,32.521,73.078,32.52,72.148,33.451z"/>
	<path fill="#FFFFFF" d="M50.001,0C22.898,0,0,22.896,0,50s22.898,50,50.001,50C77.104,100,100,77.104,100,50S77.104,0,50.001,0z
		 M50.001,95.238c-24.522,0-45.24-20.717-45.24-45.238c0-24.522,20.717-45.238,45.24-45.238c24.522,0,45.237,20.716,45.237,45.238
		C95.238,74.521,74.523,95.238,50.001,95.238z"/>
</g>
</svg>
