<?xml version="1.0" encoding="utf-8"?>
<!-- Generator: Adobe Illustrator 16.0.0, SVG Export Plug-In . SVG Version: 6.00 Build 0)  -->
<!DOCTYPE svg PUBLIC "-//W3C//DTD SVG 1.1//EN" "http://www.w3.org/Graphics/SVG/1.1/DTD/svg11.dtd">
<svg version="1.1" id="Layer_1" xmlns="http://www.w3.org/2000/svg" xmlns:xlink="http://www.w3.org/1999/xlink" x="0px" y="0px"
	 width="100px" height="100px" viewBox="0 0 100 100" enable-background="new 0 0 100 100" xml:space="preserve">
<g>
	<path fill="#FFFFFF" d="M50.001,0C22.898,0,0,22.896,0,50s22.898,50,50.001,50C77.104,100,100,77.104,100,50S77.104,0,50.001,0z
		 M50.001,95.238c-24.522,0-45.24-20.717-45.24-45.238c0-24.522,20.717-45.238,45.24-45.238c24.522,0,45.237,20.716,45.237,45.238
		C95.238,74.521,74.523,95.238,50.001,95.238z"/>
</g>
<path fill="#FFFFFF" d="M55.806,53.31l14.267-14.267c1.439-1.439,1.439-3.771,0-5.21s-3.771-1.439-5.209,0L50.595,48.1
	L36.329,33.833c-1.439-1.439-3.771-1.439-5.21,0s-1.439,3.771,0,5.21L45.385,53.31L31.115,67.58c-1.439,1.439-1.439,3.771,0,5.211
	c0.719,0.72,1.662,1.079,2.605,1.079s1.885-0.359,2.605-1.079l14.271-14.271l14.271,14.271c0.719,0.72,1.661,1.079,2.604,1.079
	c0.942,0,1.886-0.359,2.604-1.079c1.439-1.439,1.439-3.771,0-5.211L55.806,53.31z"/>
</svg>
