<?xml version="1.0" encoding="utf-8"?>
<!-- Generator: Adobe Illustrator 16.0.0, SVG Export Plug-In . SVG Version: 6.00 Build 0)  -->
<!DOCTYPE svg PUBLIC "-//W3C//DTD SVG 1.1//EN" "http://www.w3.org/Graphics/SVG/1.1/DTD/svg11.dtd">
<svg version="1.1" id="Layer_1" xmlns="http://www.w3.org/2000/svg" xmlns:xlink="http://www.w3.org/1999/xlink" x="0px" y="0px"
	 width="180px" height="180px" viewBox="0 0 180 180" enable-background="new 0 0 180 180" xml:space="preserve">
<g opacity="0.1">
	<defs>
		<rect id="SVGID_1_" opacity="0.1" width="180" height="180"/>
	</defs>
	<clipPath id="SVGID_2_">
		<use xlink:href="#SVGID_1_"  overflow="visible"/>
	</clipPath>
	<path clip-path="url(#SVGID_2_)" fill="#FFA900" d="M153.432,142.684c-8.226-3.436-27.646-10.174-39.661-13.723
		c-1.028-0.322-1.187-0.373-1.187-4.64c0-3.522,1.446-7.071,2.861-10.074c1.533-3.263,3.35-8.749,3.998-13.671
		c1.828-2.117,4.311-6.291,5.903-14.249c1.402-7.013,0.747-9.565-0.181-11.961c-0.098-0.252-0.2-0.501-0.27-0.75
		c-0.352-1.644,0.128-10.188,1.329-16.816c0.831-4.548-0.208-14.22-6.471-22.222C115.8,29.52,108.23,23.313,94.409,22.449
		l-7.581,0.007c-13.586,0.857-21.155,7.064-25.111,12.122c-6.262,8.002-7.301,17.674-6.474,22.218
		c1.204,6.632,1.685,15.176,1.341,16.787c-0.078,0.282-0.18,0.531-0.279,0.783c-0.926,2.396-1.582,4.948-0.179,11.961
		c1.593,7.958,4.075,12.132,5.903,14.249c0.647,4.922,2.465,10.408,3.998,13.671c1.125,2.388,1.648,5.636,1.648,10.228
		c0,4.268-0.157,4.318-1.12,4.622c-12.43,3.67-32.212,10.817-39.588,14.048C14.835,128.778,7.5,110.233,7.5,90
		C7.5,44.509,44.509,7.5,90,7.5c45.491,0,82.5,37.009,82.5,82.5C172.5,110.014,165.329,128.383,153.432,142.684 M90,0
		C40.294,0,0,40.291,0,90c0,49.709,40.294,90,90,90c49.71,0,90-40.291,90-90C180,40.291,139.71,0,90,0"/>
</g>
</svg>
