<?xml version="1.0" encoding="utf-8"?>
<!-- Generator: Adobe Illustrator 16.0.0, SVG Export Plug-In . SVG Version: 6.00 Build 0)  -->
<!DOCTYPE svg PUBLIC "-//W3C//DTD SVG 1.1//EN" "http://www.w3.org/Graphics/SVG/1.1/DTD/svg11.dtd">
<svg version="1.1" id="Layer_1" xmlns="http://www.w3.org/2000/svg" xmlns:xlink="http://www.w3.org/1999/xlink" x="0px" y="0px"
	 width="180px" height="40px" viewBox="-35 -6 180 40" enable-background="new -35 -6 180 40" xml:space="preserve">
<g>
	<g>
		<g>
			<g>
				<path fill="#FFFFFF" d="M-12.337-1.178c-0.122,3.93-0.213,7.859-0.274,11.792c0.168-0.037,0.253-0.058,0.421-0.094
					c4.294-1.167,6.58-5.917,5.909-10.014c-0.442-2.682-2.754-4.785-7.031-3.918c-7.161,1.449-13.933,7.127-11.825,15.155
					c0.638,2.434,1.601,3.015,1.564,3.086c-0.428,0.833-5.999,0.214-6.832-3.176c-2.075-8.433,8.966-15.57,15.964-17.165
					C-9.492-6.641-1.653-6.189-0.495-0.083c0.556,2.92-4.298,9.41-4.298,9.41c0.063,0.199,4.19,1.981,4.513,4.223
					c0.601,4.162-0.836,8.742-0.266,12.83c0.196,1.409,2.524,2.87,2.524,2.87c0.014,0.106-3.548,1.521-4.731,1.751
					c-3.198,0.633-4.265-0.932-4.514-2.475c-0.686-4.238,0.755-9.085,0.075-13.356c-0.299-1.888-1.45-3.167-3.808-2.666
					c-0.47,0.1-1.026,0.319-1.685,0.569c-0.076,6.398-0.069,12.794,0.025,19.194c-2.828,0.657-4.238,1.005-7.053,1.732
					c-0.361-10.806-0.52-21.609-0.478-32.427C-17.067,0.433-15.495-0.118-12.337-1.178z"/>
				<path fill="#FFFFFF" d="M15.018,23.301c3.981-0.525,6.146-2.955,8.43-6.035c0.699-0.069,1.049-0.104,1.747-0.171
					c-2.609,5.204-6.95,9.794-12.814,10.783c-4.468,0.753-8.427-1.978-9.047-6.582C2.247,13.231,5.634,2.82,14.942,1.717
					c4.791-0.567,6.223,1.632,6.437,4.069c0.541,6.107-9.74,10.559-10.757,11.902c-0.145,0.188,0.094,1.392,0.179,1.982
					C11.28,23.017,12.599,23.621,15.018,23.301z M15.691,4.279c-3.617,0.882-5.263,10.761-4.991,10.987
					c0.627,0.529,6.97-5.011,6.566-9.125C17.146,4.93,16.572,4.065,15.691,4.279z"/>
				<path fill="#FFFFFF" d="M46.709-0.147c-1.155,5.658-2.26,11.324-3.317,17.001c-0.133,0.653-0.165,1.152-0.148,1.599
					c0.049,1.39,0.724,1.811,2.147,1.77c1.98-0.059,3.315-1.965,4.049-4.464c0.868-0.012,1.3-0.018,2.166-0.024
					c-1.459,4.608-4.812,9.215-9.976,9.446c-2.843,0.122-5.221-4.466-5.221-4.466c-0.255-0.043-5.016,5.065-7.111,5.245
					c-2.989,0.25-5.514-1.286-5.937-5.437c-0.098-0.941-0.053-2.042,0.084-3.256c0.634-5.417,1.328-10.824,2.083-16.225
					c3.118-0.279,4.675-0.398,7.794-0.602c-0.922,5.702-1.789,11.408-2.608,17.129c-0.064,0.504-0.081,0.951-0.047,1.401
					c0.089,1.142,0.563,1.996,1.678,1.915c1.979-0.143,3.177-2.106,3.803-4.632c0.857-5.385,1.775-10.76,2.755-16.124
					C42.024-0.022,43.588-0.076,46.709-0.147z"/>
				<path fill="#FFFFFF" d="M71.291,16.221c-2.848,2.824-6.206,4.497-8.073,5.86c-2.118,1.552-5.391,2.854-7.94,2.843
					c-5.101-0.023-7.369-3.271-7.431-6.302c-0.044-2.286,1.866-3.933,2.655-4.665c2.761-2.562,4.74-9.646,6.517-14.716
					c3.22-0.369,4.834-0.532,8.073-0.816c0.125,6.031,0.65,12.175,0.51,18.123c-0.016,0.685-0.276,1.879-0.276,1.879
					c0.095,0.081,2.783-1.573,3.801-2.319C69.99,16.146,70.425,16.171,71.291,16.221z M51.931,18.168
					c-0.51,0.003-1.388-0.633-1.388-0.633c-0.064,0.014,0.902,3.459,3.129,3.456c2.229,0,4.474-1.162,4.474-4.593
					c-0.003-3.88-0.857-11.792-0.857-11.792c-0.062-0.007-4.53,8.704-4.298,9.38c0.062,0.185,1.191,0.892,1.191,1.742
					C54.182,16.917,53.261,18.157,51.931,18.168z"/>
				<path fill="#FFFFFF" d="M79.354,21.825c3.994,0.343,6.625-1.569,9.514-4.085c0.697,0.083,1.047,0.122,1.743,0.208
					c-3.652,4.52-8.861,8.072-14.803,7.781c-4.527-0.22-7.788-3.742-7.414-8.367C69.047,9.256,74.54-0.2,83.868,0.724
					c4.794,0.473,5.732,2.927,5.423,5.357c-0.774,6.071-11.752,8.223-13.03,9.316c-0.185,0.153-0.204,1.378-0.246,1.976
					C75.771,20.745,76.927,21.619,79.354,21.825z M84.055,3.388c-3.723,0.082-7.421,9.381-7.203,9.664
					c0.499,0.648,7.868-3.404,8.344-7.502C85.338,4.333,84.958,3.368,84.055,3.388z"/>
				<path fill="#FFFFFF" d="M105.161-4.047c-1.236,2.984-1.848,4.478-3.048,7.472c1.29,0.196,1.934,0.298,3.224,0.509
					c-0.299,0.759-0.448,1.137-0.745,1.894c-1.282-0.208-1.922-0.308-3.205-0.503c-1.875,4.738-3.7,9.494-5.474,14.271
					c-0.241,0.618-0.36,1.101-0.42,1.548c-0.19,1.377,0.404,1.91,1.817,2.116c1.967,0.288,4.067-1.287,5.226-3.614
					c0.861,0.139,1.289,0.209,2.145,0.354c-2.373,4.413-6.674,8.188-11.937,7.49c-2.979-0.397-5.119-2.437-4.648-6.585
					c0.105-0.938,0.382-2.009,0.775-3.16c1.562-4.511,3.162-9.01,4.81-13.486c-0.708-0.087-1.059-0.135-1.771-0.219
					c0.268-0.771,0.403-1.155,0.67-1.922c0.712,0.089,1.067,0.132,1.777,0.224c0.993-2.64,1.494-3.956,2.514-6.591
					C100.181-4.212,101.839-4.172,105.161-4.047z"/>
				<path fill="#FFFFFF" d="M116.432,5.947c-2.356,5.272-4.665,10.558-6.929,15.867c-0.27,0.607-0.411,1.088-0.49,1.529
					c-0.252,1.367,0.317,1.927,1.721,2.197c1.956,0.377,4.131-1.099,5.395-3.373c0.854,0.182,1.278,0.269,2.131,0.456
					c-2.579,4.301-7.053,7.869-12.282,6.933c-2.967-0.533-5.017-2.668-4.357-6.794c0.149-0.931,0.473-1.984,0.917-3.12
					c2.006-5.066,4.068-10.116,6.187-15.137C111.811,5.043,113.353,5.331,116.432,5.947z M116.001-4.922
					c2.434,0.466,4.061,2.63,3.625,4.774c-0.439,2.143-2.725,3.445-5.1,2.988c-2.375-0.454-3.964-2.5-3.584-4.654
					C111.318-3.969,113.568-5.39,116.001-4.922z"/>
				<path fill="#FFFFFF" d="M133.414,14.188c0.299-1.154-0.064-2.28-0.912-2.341c-4.399-0.306-8.846,7.559-9.993,12.187
					c-0.728,2.942,0.371,4.316,2.062,4.729c1.938,0.473,6.648-1.13,6.648-1.13c0.222,0.222-6.135,5.951-10.327,5.003
					c-4.344-0.979-7.115-4.911-6.036-9.414c1.888-7.915,8.8-16.388,17.87-14.037c4.696,1.218,5.278,3.76,4.665,6.015
					c-0.666,2.444-2.28,3.084-3.671,2.714c-0.622-0.162-1.652-0.817-1.662-1.051C132.041,16.451,133.203,15.006,133.414,14.188z"/>
			</g>
		</g>
	</g>
</g>
<g>
	<g>
		<ellipse fill="#FFFFFF" cx="-31.359" cy="22.13" rx="3.64" ry="3.657"/>
	</g>
</g>
<g>
	<g>
		<ellipse fill="#FFFFFF" cx="141.359" cy="24.974" rx="3.641" ry="3.657"/>
	</g>
</g>
</svg>
