<?xml version="1.0" encoding="utf-8"?>
<!-- Generator: Adobe Illustrator 16.0.0, SVG Export Plug-In . SVG Version: 6.00 Build 0)  -->
<!DOCTYPE svg PUBLIC "-//W3C//DTD SVG 1.1//EN" "http://www.w3.org/Graphics/SVG/1.1/DTD/svg11.dtd">
<svg version="1.1" id="Layer_1" xmlns="http://www.w3.org/2000/svg" xmlns:xlink="http://www.w3.org/1999/xlink" x="0px" y="0px"
	 width="868px" height="200px" viewBox="0 0 868 200" enable-background="new 0 0 868 200" xml:space="preserve">
<g>
	<g>
		<path d="M116.276,31.498c-0.588,18.689-1.026,37.382-1.314,56.079c0.806-0.174,1.212-0.26,2.018-0.432
			c20.517-5.549,31.436-28.14,28.219-47.626c-2.106-12.762-13.159-22.761-33.585-18.64c-34.221,6.903-66.574,33.898-56.501,72.069
			c3.055,11.576,7.658,14.336,7.481,14.678c-2.046,3.963-28.664,1.012-32.645-15.1c-9.909-40.106,42.836-74.042,76.269-81.627
			c23.647-5.366,61.106-3.229,66.64,25.82c2.645,13.884-20.535,44.757-20.535,44.757c0.302,0.943,20.019,9.426,21.562,20.077
			c2.869,19.788-3.999,41.567-1.284,61.013c0.938,6.709,12.06,13.654,12.06,13.654c0.07,0.508-16.956,7.219-22.599,8.326
			c-15.284,2.997-20.378-4.433-21.575-11.78c-3.284-20.162,3.601-43.207,0.357-63.529c-1.431-8.966-6.926-15.046-18.189-12.666
			c-2.253,0.476-4.907,1.525-8.055,2.693c-0.364,30.429-0.323,60.863,0.123,91.29c-13.509,3.127-20.253,4.774-33.702,8.238
			c-1.723-51.408-2.482-102.775-2.271-154.212C93.681,39.161,101.189,36.543,116.276,31.498z"/>
		<path d="M246.976,147.915c19.02-2.495,29.358-14.059,40.277-28.7c3.338-0.336,5.005-0.498,8.345-0.815
			c-12.462,24.756-33.207,46.573-61.225,51.281c-21.35,3.588-40.258-9.404-43.219-31.297c-5.189-38.361,10.99-87.865,55.465-93.113
			c22.881-2.7,29.728,7.759,30.757,19.356c2.576,29.04-46.541,50.202-51.403,56.592c-0.687,0.902,0.451,6.619,0.855,9.428
			C229.114,146.556,235.419,149.431,246.976,147.915z M250.189,57.457c-17.286,4.189-25.146,51.157-23.847,52.246
			c2.998,2.514,33.308-23.821,31.375-43.385C257.146,60.544,254.395,56.438,250.189,57.457z"/>
		<path d="M398.394,36.404c-5.522,26.91-10.802,53.852-15.85,80.854c-0.629,3.097-0.787,5.472-0.712,7.597
			c0.235,6.612,3.463,8.611,10.258,8.417c9.465-0.271,15.833-9.352,19.352-21.225c4.137-0.062,6.204-0.085,10.341-0.117
			c-6.968,21.912-22.992,43.831-47.659,44.916c-13.576,0.598-24.942-21.229-24.942-21.229c-1.211-0.209-23.961,24.092-33.968,24.932
			c-14.294,1.198-26.351-6.095-28.369-25.847c-0.456-4.468-0.254-9.716,0.403-15.483c3.025-25.758,6.35-51.479,9.957-77.162
			c14.887-1.328,22.33-1.9,37.231-2.863c-4.394,27.118-8.545,54.255-12.461,81.446c-0.309,2.396-0.391,4.537-0.227,6.658
			c0.42,5.421,2.685,9.499,8.014,9.114c9.45-0.684,15.176-10.018,18.173-22.032c4.098-25.607,8.481-51.168,13.162-76.675
			C376.01,37.003,383.471,36.743,398.394,36.404z"/>
		<path d="M515.828,114.236c-13.596,13.43-29.642,21.389-38.564,27.883c-10.124,7.368-25.758,13.562-37.94,13.507
			c-24.365-0.107-35.204-15.559-35.496-29.974c-0.221-10.871,8.914-18.695,12.687-22.18c13.186-12.177,22.644-45.872,31.129-69.992
			c15.383-1.745,23.102-2.525,38.574-3.882c0.591,28.692,3.113,57.909,2.437,86.186c-0.078,3.261-1.327,8.938-1.327,8.938
			c0.461,0.38,13.302-7.492,18.165-11.036C509.625,113.891,511.695,114,515.828,114.236z M423.335,123.497
			c-2.442,0.017-6.629-3.008-6.629-3.008c-0.306,0.077,4.3,16.462,14.949,16.451c10.649-0.012,21.367-5.535,21.358-21.846
			c-0.01-18.447-4.079-56.075-4.079-56.075c-0.302-0.041-21.646,41.391-20.534,44.599c0.305,0.881,5.693,4.252,5.691,8.271
			C434.088,117.562,429.688,123.454,423.335,123.497z"/>
		<path d="M554.359,140.903c19.084,1.623,31.655-7.464,45.457-19.435c3.333,0.385,5.001,0.581,8.332,0.984
			c-17.461,21.512-42.338,38.405-70.725,37.023c-21.64-1.053-37.213-17.814-35.428-39.807c3.129-38.54,29.364-83.499,73.931-79.117
			c22.908,2.252,27.381,13.932,25.907,25.479c-3.687,28.884-56.146,39.103-62.256,44.303c-0.865,0.736-0.973,6.568-1.178,9.397
			C537.233,135.763,542.762,139.917,554.359,140.903z M576.812,53.217c-17.776,0.396-35.455,44.611-34.421,45.949
			c2.392,3.093,37.589-16.175,39.879-35.683C582.945,57.72,581.136,53.121,576.812,53.217z"/>
		<path d="M677.655,17.858c-5.907,14.19-8.823,21.296-14.563,35.534c6.167,0.938,9.249,1.421,15.409,2.422
			c-1.429,3.599-2.139,5.399-3.556,9.001c-6.122-0.986-9.189-1.464-15.319-2.388c-8.963,22.523-17.676,45.146-26.152,67.858
			c-1.156,2.94-1.725,5.25-2.017,7.356c-0.91,6.555,1.934,9.085,8.68,10.07c9.396,1.372,19.433-6.126,24.979-17.202
			c4.098,0.662,6.142,1.002,10.237,1.692c-11.343,20.979-31.879,38.944-57.032,35.621c-14.24-1.882-24.461-11.584-22.214-31.312
			c0.508-4.461,1.827-9.548,3.703-15.041c7.451-21.452,15.113-42.831,22.987-64.13c-3.38-0.425-5.067-0.634-8.449-1.04
			c1.27-3.657,1.904-5.482,3.186-9.135c3.402,0.413,5.104,0.625,8.504,1.057c4.737-12.55,7.136-18.816,12.003-31.333
			C653.858,17.073,661.785,17.266,677.655,17.858z"/>
		<path d="M731.51,65.387c-11.26,25.064-22.299,50.208-33.115,75.466c-1.29,2.886-1.957,5.164-2.346,7.255
			c-1.206,6.508,1.523,9.165,8.229,10.456c9.343,1.8,19.727-5.227,25.777-16.039c4.072,0.85,6.108,1.278,10.176,2.157
			c-12.316,20.464-33.687,37.448-58.689,32.98c-14.164-2.53-23.955-12.691-20.814-32.297c0.71-4.436,2.257-9.451,4.382-14.854
			c9.588-24.102,19.427-48.102,29.552-71.981C709.424,61.09,716.796,62.461,731.51,65.387z M729.446,13.692
			c11.622,2.218,19.403,12.515,17.314,22.702c-2.09,10.188-13.015,16.38-24.361,14.214c-11.347-2.166-18.944-11.896-17.133-22.137
			C707.078,18.231,717.824,11.473,729.446,13.692z"/>
		<path d="M812.645,104.573c1.424-5.49-0.319-10.842-4.353-11.122c-21.019-1.459-42.259,35.943-47.741,57.959
			c-3.482,13.984,1.769,20.534,9.844,22.491c9.264,2.243,31.764-5.375,31.764-5.375c1.064,1.051-29.304,28.292-49.347,23.795
			c-20.745-4.654-33.982-23.352-28.842-44.78c9.03-37.636,42.058-77.934,85.389-66.749c22.439,5.792,25.224,17.891,22.292,28.605
			c-3.18,11.627-10.893,14.666-17.551,12.909c-2.96-0.781-7.882-3.89-7.93-5.004C806.088,115.331,811.635,108.463,812.645,104.573z"
			/>
	</g>
	<g>
		<g>
			<g>
				<linearGradient id="SVGID_1_" gradientUnits="userSpaceOnUse" x1="148.6436" y1="98.3979" x2="684.9124" y2="95.4991">
					<stop  offset="0" style="stop-color:#FFB200"/>
					<stop  offset="0.4783" style="stop-color:#FFDA00"/>
					<stop  offset="1" style="stop-color:#FFAE00"/>
				</linearGradient>
				<path fill="url(#SVGID_1_)" d="M108.276,26.498c-0.588,18.689-1.026,37.382-1.314,56.079c0.806-0.174,1.212-0.26,2.018-0.432
					c20.517-5.549,31.436-28.14,28.219-47.626c-2.106-12.762-13.159-22.761-33.585-18.64c-34.221,6.903-66.574,33.898-56.501,72.069
					c3.055,11.576,7.658,14.336,7.481,14.678c-2.046,3.963-28.664,1.012-32.645-15.1C12.04,47.419,64.785,13.484,98.218,5.898
					c23.647-5.366,61.106-3.229,66.64,25.82c2.645,13.884-20.535,44.757-20.535,44.757c0.302,0.943,20.019,9.426,21.562,20.077
					c2.869,19.788-3.999,41.567-1.284,61.013c0.938,6.709,12.06,13.654,12.06,13.654c0.07,0.508-16.956,7.219-22.599,8.326
					c-15.284,2.997-20.378-4.433-21.575-11.78c-3.284-20.162,3.601-43.207,0.357-63.529c-1.431-8.966-6.926-15.046-18.189-12.666
					c-2.253,0.476-4.907,1.525-8.055,2.693c-0.364,30.429-0.323,60.863,0.123,91.29c-13.509,3.127-20.253,4.774-33.702,8.238
					c-1.723-51.408-2.482-102.775-2.271-154.212C85.681,34.161,93.189,31.543,108.276,26.498z"/>
				<linearGradient id="SVGID_2_" gradientUnits="userSpaceOnUse" x1="148.6685" y1="103.0103" x2="684.9355" y2="100.1114">
					<stop  offset="0" style="stop-color:#FFB200"/>
					<stop  offset="0.4783" style="stop-color:#FFDA00"/>
					<stop  offset="1" style="stop-color:#FFAE00"/>
				</linearGradient>
				<path fill="url(#SVGID_2_)" d="M238.976,142.915c19.02-2.495,29.358-14.059,40.277-28.7c3.338-0.336,5.005-0.498,8.345-0.815
					c-12.462,24.756-33.207,46.573-61.225,51.281c-21.35,3.588-40.258-9.404-43.219-31.297
					c-5.189-38.361,10.99-87.865,55.465-93.113c22.881-2.7,29.728,7.759,30.757,19.356c2.576,29.04-46.541,50.202-51.403,56.592
					c-0.687,0.902,0.451,6.619,0.855,9.428C221.114,141.556,227.419,144.431,238.976,142.915z M242.189,52.457
					c-17.286,4.189-25.146,51.157-23.847,52.246c2.998,2.514,33.308-23.821,31.375-43.385
					C249.146,55.544,246.395,51.438,242.189,52.457z"/>
				<linearGradient id="SVGID_3_" gradientUnits="userSpaceOnUse" x1="148.6235" y1="94.6138" x2="684.8883" y2="91.7149">
					<stop  offset="0" style="stop-color:#FFB200"/>
					<stop  offset="0.4783" style="stop-color:#FFDA00"/>
					<stop  offset="1" style="stop-color:#FFAE00"/>
				</linearGradient>
				<path fill="url(#SVGID_3_)" d="M390.394,31.404c-5.522,26.91-10.802,53.852-15.85,80.854c-0.629,3.097-0.787,5.472-0.712,7.597
					c0.235,6.612,3.463,8.611,10.258,8.417c9.465-0.271,15.833-9.352,19.352-21.225c4.137-0.062,6.204-0.085,10.341-0.117
					c-6.968,21.912-22.992,43.831-47.659,44.916c-13.576,0.598-24.942-21.229-24.942-21.229
					c-1.211-0.209-23.961,24.092-33.968,24.932c-14.294,1.198-26.351-6.095-28.369-25.847c-0.456-4.468-0.254-9.716,0.403-15.483
					c3.025-25.758,6.35-51.479,9.957-77.162c14.887-1.328,22.33-1.9,37.231-2.863c-4.394,27.118-8.545,54.255-12.461,81.446
					c-0.309,2.396-0.391,4.537-0.227,6.658c0.42,5.421,2.685,9.499,8.014,9.114c9.45-0.684,15.176-10.018,18.173-22.032
					c4.098-25.607,8.481-51.168,13.162-76.675C368.01,32.003,375.471,31.743,390.394,31.404z"/>
				<linearGradient id="SVGID_4_" gradientUnits="userSpaceOnUse" x1="148.5952" y1="89.269" x2="684.8587" y2="86.3702">
					<stop  offset="0" style="stop-color:#FFB200"/>
					<stop  offset="0.4783" style="stop-color:#FFDA00"/>
					<stop  offset="1" style="stop-color:#FFAE00"/>
				</linearGradient>
				<path fill="url(#SVGID_4_)" d="M507.828,109.236c-13.596,13.43-29.642,21.389-38.564,27.883
					c-10.124,7.368-25.758,13.562-37.94,13.507c-24.365-0.107-35.204-15.559-35.496-29.974c-0.221-10.871,8.914-18.695,12.687-22.18
					c13.186-12.177,22.644-45.872,31.129-69.992c15.383-1.745,23.102-2.525,38.574-3.882c0.591,28.692,3.113,57.909,2.437,86.186
					c-0.078,3.261-1.327,8.938-1.327,8.938c0.461,0.38,13.302-7.492,18.165-11.036C501.625,108.891,503.695,109,507.828,109.236z
					 M415.335,118.497c-2.442,0.017-6.629-3.008-6.629-3.008c-0.306,0.077,4.3,16.462,14.949,16.451
					c10.649-0.012,21.367-5.535,21.358-21.846c-0.01-18.447-4.079-56.075-4.079-56.075c-0.302-0.041-21.646,41.391-20.534,44.599
					c0.305,0.881,5.693,4.252,5.691,8.271C426.088,112.562,421.688,118.454,415.335,118.497z"/>
				<linearGradient id="SVGID_5_" gradientUnits="userSpaceOnUse" x1="148.6396" y1="97.061" x2="684.9003" y2="94.1622">
					<stop  offset="0" style="stop-color:#FFB200"/>
					<stop  offset="0.4783" style="stop-color:#FFDA00"/>
					<stop  offset="1" style="stop-color:#FFAE00"/>
				</linearGradient>
				<path fill="url(#SVGID_5_)" d="M546.359,135.903c19.084,1.623,31.655-7.464,45.457-19.435c3.333,0.385,5.001,0.581,8.332,0.984
					c-17.461,21.512-42.338,38.405-70.725,37.023c-21.64-1.053-37.213-17.814-35.428-39.807
					c3.129-38.54,29.364-83.499,73.931-79.117c22.908,2.252,27.381,13.932,25.907,25.479c-3.687,28.884-56.146,39.103-62.256,44.303
					c-0.865,0.736-0.973,6.568-1.178,9.397C529.233,130.763,534.762,134.917,546.359,135.903z M568.812,48.217
					c-17.776,0.396-35.455,44.611-34.421,45.949c2.392,3.093,37.589-16.175,39.879-35.683
					C574.945,52.72,573.136,48.121,568.812,48.217z"/>
				<linearGradient id="SVGID_6_" gradientUnits="userSpaceOnUse" x1="148.6055" y1="90.1216" x2="684.8641" y2="87.2227">
					<stop  offset="0" style="stop-color:#FFB200"/>
					<stop  offset="0.4783" style="stop-color:#FFDA00"/>
					<stop  offset="1" style="stop-color:#FFAE00"/>
				</linearGradient>
				<path fill="url(#SVGID_6_)" d="M669.655,12.858c-5.907,14.19-8.823,21.296-14.563,35.534c6.167,0.938,9.249,1.421,15.409,2.422
					c-1.429,3.599-2.139,5.399-3.556,9.001c-6.122-0.986-9.189-1.464-15.319-2.388c-8.963,22.523-17.676,45.146-26.152,67.858
					c-1.156,2.94-1.725,5.25-2.017,7.356c-0.91,6.555,1.934,9.085,8.68,10.07c9.396,1.372,19.433-6.126,24.979-17.202
					c4.098,0.662,6.142,1.002,10.237,1.692c-11.343,20.979-31.879,38.944-57.032,35.621c-14.24-1.882-24.461-11.584-22.214-31.312
					c0.508-4.461,1.827-9.548,3.703-15.041c7.451-21.452,15.113-42.831,22.987-64.13c-3.38-0.425-5.067-0.634-8.449-1.04
					c1.27-3.657,1.904-5.482,3.186-9.135c3.402,0.413,5.104,0.625,8.504,1.057c4.737-12.55,7.136-18.816,12.003-31.333
					C645.858,12.073,653.785,12.266,669.655,12.858z"/>
				<linearGradient id="SVGID_7_" gradientUnits="userSpaceOnUse" x1="148.6045" y1="93.8022" x2="684.884" y2="90.9033">
					<stop  offset="0" style="stop-color:#FFB200"/>
					<stop  offset="0.4783" style="stop-color:#FFDA00"/>
					<stop  offset="1" style="stop-color:#FFAE00"/>
				</linearGradient>
				<path fill="url(#SVGID_7_)" d="M723.51,60.387c-11.26,25.064-22.299,50.208-33.115,75.466c-1.29,2.886-1.957,5.164-2.346,7.255
					c-1.206,6.508,1.523,9.165,8.229,10.456c9.343,1.8,19.727-5.227,25.777-16.039c4.072,0.85,6.108,1.278,10.176,2.157
					c-12.316,20.464-33.687,37.448-58.689,32.98c-14.164-2.53-23.955-12.691-20.814-32.297c0.71-4.436,2.257-9.451,4.382-14.854
					c9.588-24.102,19.427-48.102,29.552-71.981C701.424,56.09,708.796,57.461,723.51,60.387z M721.446,8.692
					c11.622,2.218,19.403,12.515,17.314,22.702c-2.09,10.188-13.015,16.38-24.361,14.214c-11.347-2.166-18.944-11.896-17.133-22.137
					C699.078,13.231,709.824,6.473,721.446,8.692z"/>
				<linearGradient id="SVGID_8_" gradientUnits="userSpaceOnUse" x1="148.8325" y1="134.2051" x2="685.1024" y2="131.3062">
					<stop  offset="0" style="stop-color:#FFB200"/>
					<stop  offset="0.4783" style="stop-color:#FFDA00"/>
					<stop  offset="1" style="stop-color:#FFAE00"/>
				</linearGradient>
				<path fill="url(#SVGID_8_)" d="M804.645,99.573c1.424-5.49-0.319-10.842-4.353-11.122
					c-21.019-1.459-42.259,35.943-47.741,57.959c-3.482,13.984,1.769,20.534,9.844,22.491c9.264,2.243,31.764-5.375,31.764-5.375
					c1.064,1.051-29.304,28.292-49.347,23.795c-20.745-4.654-33.982-23.352-28.842-44.78c9.03-37.636,42.058-77.934,85.389-66.749
					c22.439,5.792,25.224,17.891,22.292,28.605c-3.18,11.627-10.893,14.666-17.551,12.909c-2.96-0.781-7.882-3.89-7.93-5.004
					C798.088,110.331,803.635,103.463,804.645,99.573z"/>
			</g>
		</g>
	</g>
</g>
<g>
	<g>
		<circle cx="22.393" cy="142.344" r="17.393"/>
	</g>
	<g>
		<radialGradient id="SVGID_9_" cx="17.3936" cy="137.3438" r="17.3933" gradientUnits="userSpaceOnUse">
			<stop  offset="0" style="stop-color:#FFD400"/>
			<stop  offset="1" style="stop-color:#E28F26"/>
		</radialGradient>
		<circle fill="url(#SVGID_9_)" cx="17.393" cy="137.344" r="17.393"/>
	</g>
</g>
<g>
	<g>
		<circle cx="847.606" cy="155.872" r="17.394"/>
	</g>
	<g>
		<radialGradient id="SVGID_10_" cx="842.6064" cy="150.8711" r="17.3936" gradientUnits="userSpaceOnUse">
			<stop  offset="0" style="stop-color:#FFD400"/>
			<stop  offset="1" style="stop-color:#E28F26"/>
		</radialGradient>
		<circle fill="url(#SVGID_10_)" cx="842.606" cy="150.872" r="17.394"/>
	</g>
</g>
</svg>
