<?xml version="1.0" encoding="utf-8"?>
<!-- Generator: Adobe Illustrator 16.0.4, SVG Export Plug-In . SVG Version: 6.00 Build 0)  -->
<!DOCTYPE svg PUBLIC "-//W3C//DTD SVG 1.1//EN" "http://www.w3.org/Graphics/SVG/1.1/DTD/svg11.dtd">
<svg version="1.1" id="Layer_1" xmlns="http://www.w3.org/2000/svg" xmlns:xlink="http://www.w3.org/1999/xlink" x="0px" y="0px"
	 width="40px" height="40px" viewBox="0 0 40 40" enable-background="new 0 0 40 40" xml:space="preserve">
<g>
	<g>
		<g>
			<defs>
				<rect id="SVGID_1_" x="5" y="5" width="30" height="30.001"/>
			</defs>
			<clipPath id="SVGID_2_">
				<use xlink:href="#SVGID_1_"  overflow="visible"/>
			</clipPath>
			<path clip-path="url(#SVGID_2_)" fill="#FFFFFF" d="M20,33.271c-7.317,0-13.269-5.954-13.269-13.271
				c0-7.317,5.952-13.27,13.269-13.27c7.316,0,13.269,5.953,13.269,13.27C33.269,27.317,27.316,33.271,20,33.271 M20,5
				C11.729,5,5,11.729,5,20s6.729,15,15,15c8.271,0,15-6.729,15-15S28.271,5,20,5"/>
		</g>
	</g>
	<g>
		<g>
			<defs>
				<rect id="SVGID_3_" x="5" y="5" width="30" height="30.001"/>
			</defs>
			<clipPath id="SVGID_4_">
				<use xlink:href="#SVGID_3_"  overflow="visible"/>
			</clipPath>
			<path clip-path="url(#SVGID_4_)" fill="#FFFFFF" d="M18.435,12.351c-0.338-0.338-0.886-0.338-1.223,0
				c-0.339,0.338-0.339,0.886,0,1.224L23.637,20l-6.424,6.425c-0.338,0.339-0.338,0.887,0,1.225
				c0.168,0.169,0.391,0.254,0.612,0.254s0.442-0.085,0.612-0.254l7.036-7.037c0.338-0.338,0.338-0.887,0-1.224L18.435,12.351z"/>
		</g>
	</g>
</g>
</svg>
