<?xml version="1.0" encoding="utf-8"?>
<!-- Generator: Adobe Illustrator 16.0.4, SVG Export Plug-In . SVG Version: 6.00 Build 0)  -->
<!DOCTYPE svg PUBLIC "-//W3C//DTD SVG 1.1//EN" "http://www.w3.org/Graphics/SVG/1.1/DTD/svg11.dtd">
<svg version="1.1" id="Layer_1" xmlns="http://www.w3.org/2000/svg" xmlns:xlink="http://www.w3.org/1999/xlink" x="0px" y="0px"
	 width="665.244px" height="691px" viewBox="0 0 665.244 691" enable-background="new 0 0 665.244 691" xml:space="preserve">
<g id="Layer_2" display="none">
	<rect x="342.385" y="343.011" display="inline" fill="#2676BF" width="825.889" height="257.989"/>
</g>
<g id="Layer_2_copy">
</g>
<g>
	<g>
		<g>
			<g>
				<g>
					<defs>
						<rect id="SVGID_1_" x="314.76" y="273.447" width="53.724" height="80.587"/>
					</defs>
					<clipPath id="SVGID_2_">
						<use xlink:href="#SVGID_1_"  overflow="visible"/>
					</clipPath>
					<path clip-path="url(#SVGID_2_)" fill="#FF3F00" d="M341.622,314.299c-7.42,0-13.433-6.008-13.433-13.431
						c0-7.418,6.011-13.431,13.433-13.431c7.414,0,13.432,6.012,13.432,13.431C355.053,308.291,349.036,314.299,341.622,314.299
						 M341.622,273.447c-14.834,0-26.862,12.027-26.862,26.863c0,14.832,26.862,53.724,26.862,53.724s26.861-38.892,26.861-53.724
						C368.483,285.475,356.454,273.447,341.622,273.447"/>
				</g>
			</g>
		</g>
	</g>
</g>
</svg>
