<?xml version="1.0" encoding="utf-8"?>
<!-- Generator: Adobe Illustrator 16.0.4, SVG Export Plug-In . SVG Version: 6.00 Build 0)  -->
<!DOCTYPE svg PUBLIC "-//W3C//DTD SVG 1.1//EN" "http://www.w3.org/Graphics/SVG/1.1/DTD/svg11.dtd">
<svg version="1.1" id="Layer_1" xmlns="http://www.w3.org/2000/svg" xmlns:xlink="http://www.w3.org/1999/xlink" x="0px" y="0px"
	 width="665.244px" height="691px" viewBox="0 0 665.244 691" enable-background="new 0 0 665.244 691" xml:space="preserve">
<g id="Layer_2" display="none">
	<rect x="342.385" y="343.011" display="inline" fill="#2676BF" width="825.889" height="257.989"/>
</g>
<g id="Layer_2_copy">
</g>
<g>
	<g>
		<g>
			<g>
				<defs>
					<rect id="SVGID_1_" x="142.492" y="127.738" width="53.724" height="80.586"/>
				</defs>
				<clipPath id="SVGID_2_">
					<use xlink:href="#SVGID_1_"  overflow="visible"/>
				</clipPath>
				<path clip-path="url(#SVGID_2_)" fill="#FF3F00" d="M169.354,168.589c-7.419,0-13.432-6.008-13.432-13.431
					c0-7.418,6.011-13.431,13.432-13.431c7.415,0,13.432,6.012,13.432,13.431C182.785,162.581,176.769,168.589,169.354,168.589
					 M169.354,127.738c-14.834,0-26.862,12.027-26.862,26.862c0,14.833,26.862,53.724,26.862,53.724s26.862-38.891,26.862-53.724
					C196.216,139.765,184.187,127.738,169.354,127.738"/>
			</g>
		</g>
	</g>
</g>
</svg>
