<?xml version="1.0" encoding="utf-8"?>
<!-- Generator: Adobe Illustrator 16.0.4, SVG Export Plug-In . SVG Version: 6.00 Build 0)  -->
<!DOCTYPE svg PUBLIC "-//W3C//DTD SVG 1.1//EN" "http://www.w3.org/Graphics/SVG/1.1/DTD/svg11.dtd">
<svg version="1.1" id="Layer_1" xmlns="http://www.w3.org/2000/svg" xmlns:xlink="http://www.w3.org/1999/xlink" x="0px" y="0px"
	 width="842.958px" height="625.468px" viewBox="0 0 842.958 625.468" enable-background="new 0 0 842.958 625.468"
	 xml:space="preserve">
<g id="Layer_2" display="none">
	<rect x="342.385" y="343.011" display="inline" fill="#2676BF" width="825.889" height="257.988"/>
</g>
<g id="Layer_2_copy">
</g>
<g>
	<g>
		<g>
			<g>
				<g>
					<defs>
						<rect id="SVGID_1_" x="729.883" y="273.531" width="75.816" height="113.722"/>
					</defs>
					<clipPath id="SVGID_2_">
						<use xlink:href="#SVGID_1_"  overflow="visible"/>
					</clipPath>
					<path clip-path="url(#SVGID_2_)" fill="#FF3F00" d="M767.79,331.18c-10.469,0-18.955-8.479-18.955-18.953
						c0-10.469,8.482-18.953,18.955-18.953c10.466,0,18.955,8.483,18.955,18.953C786.745,322.701,778.255,331.18,767.79,331.18
						 M767.79,273.531c-20.934,0-37.907,16.972-37.907,37.908c0,20.934,37.907,75.814,37.907,75.814s37.908-54.881,37.908-75.814
						C805.7,290.502,788.721,273.531,767.79,273.531"/>
				</g>
			</g>
		</g>
	</g>
</g>
</svg>
