<?xml version="1.0" encoding="utf-8"?>
<!-- Generator: Adobe Illustrator 16.0.4, SVG Export Plug-In . SVG Version: 6.00 Build 0)  -->
<!DOCTYPE svg PUBLIC "-//W3C//DTD SVG 1.1//EN" "http://www.w3.org/Graphics/SVG/1.1/DTD/svg11.dtd">
<svg version="1.1" id="Layer_1" xmlns="http://www.w3.org/2000/svg" xmlns:xlink="http://www.w3.org/1999/xlink" x="0px" y="0px"
	 width="842.958px" height="625.468px" viewBox="0 0 842.958 625.468" enable-background="new 0 0 842.958 625.468"
	 xml:space="preserve">
<g id="Layer_2" display="none">
	<rect x="342.385" y="343.011" display="inline" fill="#2676BF" width="825.889" height="257.988"/>
</g>
<g id="Layer_2_copy">
</g>
<g>
	<g>
		<g>
			<g>
				<g>
					<g>
						<defs>
							<rect id="SVGID_1_" x="274.479" y="321.585" width="75.816" height="113.721"/>
						</defs>
						<clipPath id="SVGID_2_">
							<use xlink:href="#SVGID_1_"  overflow="visible"/>
						</clipPath>
						<path clip-path="url(#SVGID_2_)" fill="#FF3F00" d="M312.385,379.234c-10.469,0-18.955-8.479-18.955-18.953
							c0-10.47,8.482-18.953,18.955-18.953c10.466,0,18.955,8.483,18.955,18.953C331.34,370.753,322.851,379.234,312.385,379.234
							 M312.385,321.585c-20.934,0-37.907,16.971-37.907,37.906c0,20.934,37.907,75.814,37.907,75.814s37.908-54.881,37.908-75.814
							C350.295,338.556,333.316,321.585,312.385,321.585"/>
					</g>
				</g>
			</g>
		</g>
	</g>
</g>
</svg>
